<svg class="svg_setting"
    xmlns="http://www.w3.org/2000/svg" viewBox="0 0 383.99 389">
    <defs>
        <style>
            .fill_prim{
                fill:#fff
            };
            .fill_sec{
                fill:#eee;
            }
            .hz_ico_c1, .hz_ico_c2, .hz_ico_c3, .hz_ico_c4{
                stroke-linecap: round;
                stroke-miterlimit: 10;
                stroke-width: 5px;
                transition: all 0.3s ease-in-out;
            }
        </style>
    </defs>
    <path class="hz_ico_c1 fill_prim" d="M306.15,163.35c-2.54-2.31-11.45-1.61-20-.26a97.2,97.2,0,0,0-8.49-20.46c6.88-5,13.53-10.71,13.89-14.49.77-7.94-30.55-38-37.69-37.69-3.43.16-9.25,7-14.36,14A96.7,96.7,0,0,0,219,96c1.34-8.38,2-17.13-.41-20-5.08-6.16-48.51-5.28-53.31,0-2.31,2.54-1.61,11.46-.26,20a97.17,97.17,0,0,0-20.51,8.52c-5.11-7-10.93-13.84-14.36-14C123,90.12,91.7,120.2,92.47,128.14c.36,3.78,7,9.5,13.89,14.49a97.73,97.73,0,0,0-8.49,20.46c-8.57-1.35-17.49-2.05-20,.26-5.28,4.8-6.16,48.23,0,53.31,2.92,2.4,11.67,1.75,20,.41a96.7,96.7,0,0,0,8.5,20.46c-7,5.11-13.84,10.93-14,14.36-.33,7.14,29.75,38.46,37.69,37.69,3.78-.36,9.5-7,14.49-13.89A97.2,97.2,0,0,0,165,284.18c-1.35,8.58-2.05,17.49.26,20,4.8,5.28,48.23,6.17,53.31,0,2.4-2.92,1.75-11.66.41-20a97,97,0,0,0,20.42-8.47c5,6.88,10.7,13.53,14.48,13.89,8,.77,38-30.55,37.69-37.69-.16-3.43-7-9.25-14-14.36a97.2,97.2,0,0,0,8.49-20.46c8.39,1.34,17.13,2,20-.41C312.32,211.58,311.43,168.15,306.15,163.35Zm-55.61,59.82a67.27,67.27,0,1,1,8.7-33.11A67.25,67.25,0,0,1,250.54,223.17Z"/>
    <path class="hz_ico_c2 fill_sec" d="M192.48,262.59C166.61,261.31,142,248,131,224.92c-2.43-5.15-1.72-7.64-.95-8.59a67.27,67.27,0,0,0,120.46,6.84C248.33,237.72,221,264,192.48,262.59Z"/>
    <path class="hz_ico_c2 fill_sec" d="M192.4,117.53c-25.67,1.28-50.12,14.6-61,37.67-2.42,5.15-2.06,7.54-1.29,8.49a67.27,67.27,0,0,1,120.26-7C248.19,142.12,220.68,116.13,192.4,117.53Z"/>
    <path class="hz_ico_c2 fill_sec" d="M131.64,285.33a2.7,2.7,0,0,0-1.91-1.62c-.21-.07-.31.22-.14.34a5.84,5.84,0,0,1,1.36,1.57C131.19,285.93,131.78,285.77,131.64,285.33Z"/>
    <path class="hz_ico_c2 fill_sec" d="M134.77,283.35a19.88,19.88,0,0,0-2.24-2.44c-.31-.33-.75.08-.59.45a20.72,20.72,0,0,0,1.34,2.86C133.9,285.13,135.39,284.27,134.77,283.35Z"/>
    <path class="hz_ico_c2 fill_sec" d="M137.78,278.94a32.68,32.68,0,0,0-3.19-2.67c-.33-.27-1,.09-.65.5a36,36,0,0,0,2.62,3.39C137.33,281,138.55,279.74,137.78,278.94Z"/>
    <path class="hz_ico_c2 fill_sec" d="M140.74,276a17.11,17.11,0,0,0-1.29-1.4,6.75,6.75,0,0,0-1.55-1,.38.38,0,0,0-.45.59c.39.47.74,1,1.17,1.4s.83.88,1.22,1.35C140.36,277.52,141.25,276.61,140.74,276Z"/>
    <path class="hz_ico_c2 fill_sec" d="M81,214.87a12.21,12.21,0,0,0-.49-1.18,7.74,7.74,0,0,0-.75-1c-.29-.35-.75.05-.69.4a6.46,6.46,0,0,0,.24,1.16c.15.37.35.72.53,1.07C80.12,216,81.25,215.54,81,214.87Z"/>
    <path class="hz_ico_c2 fill_sec" d="M84.53,214.93a25.41,25.41,0,0,0-1.92-2.7c-.39-.53-1.27-.06-.91.53a27.59,27.59,0,0,0,1.89,2.89C84,216.19,84.85,215.5,84.53,214.93Z"/>
    <path class="hz_ico_c2 fill_sec" d="M92,214.14a17.56,17.56,0,0,0-1.39-3.28c-.33-.54-.77-1.48-1.42-1.69a.14.14,0,0,0-.15,0l-.1.09a.12.12,0,0,0,0,.14l0,.1c0,.07.12,0,.14,0a5.91,5.91,0,0,0,.39,2.65,24.89,24.89,0,0,0,1.07,2.57C90.91,215.56,92.3,215,92,214.14Z"/>
    <path class="hz_ico_c2 fill_sec" d="M95.47,211.37a.49.49,0,0,0-1,0c0,.43,0,.86-.07,1.29,0,.72,1.17.72,1.12,0C95.52,212.23,95.49,211.8,95.47,211.37Z"/>
    <path class="hz_ico_c2 fill_sec" d="M96.9,129.49l-.48,1.37c-.13.37.42.58.61.26l.76-1.25C98.15,129.28,97.15,128.81,96.9,129.49Z"/>
    <path class="hz_ico_c2 fill_sec" d="M99.73,129.41a3.05,3.05,0,0,0-1.41,2.08c-.14.52.64.89.89.38a17.93,17.93,0,0,1,1.19-1.79C100.67,129.65,100.15,129.2,99.73,129.41Z"/>
    <path class="hz_ico_c2 fill_sec" d="M104.31,132.34a8,8,0,0,0-1.8,2c-.25.39.33.85.64.5a7.5,7.5,0,0,1,1.89-1.57C105.77,132.86,105,131.78,104.31,132.34Z"/>
    <path class="hz_ico_c2 fill_sec" d="M108,134.74a4,4,0,0,0-2,2.47c-.12.36.43.58.62.26a6.64,6.64,0,0,1,1.88-1.89A.49.49,0,0,0,108,134.74Z"/>
    <path class="hz_ico_c2 fill_sec" d="M216.71,284.87a29.5,29.5,0,0,1-3.11.31c-.45,0-.59.74-.11.81a8.69,8.69,0,0,0,3.37,0C217.46,285.82,217.36,284.8,216.71,284.87Z"/>
    <path class="hz_ico_c2 fill_sec" d="M216.34,289.37a11.18,11.18,0,0,0-1.83,0,.45.45,0,0,0,0,.9,14,14,0,0,0,1.83,0A.45.45,0,0,0,216.34,289.37Z"/>
    <path class="hz_ico_c2 fill_sec" d="M217,293.67a6.56,6.56,0,0,0-1.17-.14c-.38,0-.55,0-.79.29a0,0,0,0,0,0,.05.76.76,0,0,0,.62.28,6.24,6.24,0,0,1,1.14.24C217.26,294.54,217.46,293.77,217,293.67Z"/>
    <path class="hz_ico_c2 fill_sec" d="M211.55,304.91a9.79,9.79,0,0,0-1.7-1.82.41.41,0,0,0-.58.58,9.14,9.14,0,0,1,1.24,1.84C210.87,306.21,212,305.53,211.55,304.91Z"/>
    <path class="hz_ico_c2 fill_sec" d="M216.63,302.36a8.36,8.36,0,0,0-1.55-1.16c-.39-.25-.87.35-.5.65a7.94,7.94,0,0,0,1.55,1.16A.42.42,0,0,0,216.63,302.36Z"/>
    <path class="hz_ico_c2 fill_sec" d="M276.41,241.4a8.75,8.75,0,0,0-1.78,1.5c-.47.43.22,1.09.69.69A8.2,8.2,0,0,0,277,242C277.29,241.62,276.78,241.22,276.41,241.4Z"/>
    <path class="hz_ico_c2 fill_sec" d="M280.19,243.3a4.81,4.81,0,0,0-1.72,2.38c-.23.59.73,1,1,.43a13.9,13.9,0,0,1,1.51-2C281.38,243.63,280.67,243,280.19,243.3Z"/>
    <path class="hz_ico_c2 fill_sec" d="M285.8,247.57a5.12,5.12,0,0,0-2.49.68c-.69.33-.08,1.42.6,1a20.51,20.51,0,0,1,2.12-.87C286.48,248.21,286.2,247.6,285.8,247.57Z"/>
    <path class="hz_ico_c2 fill_sec" d="M288,252.37l-.55-.07c-.7-.08-.68,1.16.13,1l.53-.08C288.67,253.16,288.46,252.42,288,252.37Z"/>
    <path class="hz_ico_c2 fill_sec" d="M306.52,210l-2.75-.15c-.49,0-.48.71,0,.75l2.75.22C307,210.9,307.05,210.07,306.52,210Z"/>
    <path class="hz_ico_c2 fill_sec" d="M307.61,207.24a6.25,6.25,0,0,0-2.23.32.11.11,0,0,0,.06.22,5.65,5.65,0,0,1,2.09.05A.3.3,0,1,0,307.61,207.24Z"/>
    <path class="hz_ico_c2 fill_sec" d="M306.87,204a.65.65,0,0,0-.65.37c0,.07,0,.32.1.31s.27-.18.4-.12A.3.3,0,1,0,306.87,204Z"/>
    <path class="hz_ico_c2 fill_sec" d="M304.62,166.39a9.11,9.11,0,0,0-3.49,0c-.3.05-.21.5.07.51,1.06.05,2.13.2,3.18.34C304.94,167.34,305.2,166.51,304.62,166.39Z"/>
    <path class="hz_ico_c2 fill_sec" d="M305.05,170l-1.1-.08c-.77-.05-.77,1.26,0,1.2l1.1-.07A.53.53,0,0,0,305.05,170Z"/>
    <path class="hz_ico_c2 fill_sec" d="M305.9,173.55l-.91-.36c-.54-.22-.77.65-.24.86l.91.37C306.2,174.63,306.43,173.77,305.9,173.55Z"/>
    <path class="hz_ico_c2 fill_sec" d="M306.39,177.77c-.07-.12-.13-.24-.19-.36-.28-.56-1.12-.07-.84.49l.19.36C305.83,178.82,306.67,178.33,306.39,177.77Z"/>
    <path class="hz_ico_c2 fill_sec" d="M281.18,137.74a27.57,27.57,0,0,1-3-2.52c-.4-.43-1,.2-.64.63a10.21,10.21,0,0,0,3.07,2.6C281.06,138.66,281.6,138.08,281.18,137.74Z"/>
    <path class="hz_ico_c2 fill_sec" d="M282.63,135.19c-.29-.22-.57-.48-.87-.67a3.46,3.46,0,0,0-.82-.34.18.18,0,0,0-.21.27,3.64,3.64,0,0,0,.52.7,8.12,8.12,0,0,0,.8.62C282.46,136.09,283.05,135.51,282.63,135.19Z"/>
    <path class="hz_ico_c2 fill_sec" d="M285.24,133.39l-2-.92c-.35-.16-.65.34-.3.52l2,1C285.29,134.16,285.63,133.56,285.24,133.39Z"/>
    <path class="hz_ico_c2 fill_sec" d="M287.71,129.43l-1.9.18c-.53,0-.53.88,0,.83l1.06-.1a.39.39,0,0,0,.33.06l.62-.16C288.26,130.13,288.18,129.39,287.71,129.43Z"/>
    <path class="hz_ico_c2 fill_sec" d="M288.26,126.91l-.27-.5c-.1-.18-.45-.11-.42.12l.07.55C287.71,127.65,288.52,127.37,288.26,126.91Z"/>
    <path class="hz_ico_c2 fill_sec" d="M285.88,122l-.36-.55c-.37-.56-1.28,0-.91.53.12.19.25.37.37.55C285.35,123.13,286.25,122.61,285.88,122Z"/>
    <path class="hz_ico_c2 fill_sec" d="M214.9,92.63a10.08,10.08,0,0,0-4.05-1.18c-.53-.06-.52.76,0,.82a15.25,15.25,0,0,1,3.73,1.11C215,93.55,215.29,92.86,214.9,92.63Z"/>
    <path class="hz_ico_c2 fill_sec" d="M215,89.42a14.43,14.43,0,0,0-2.69-.47c-.41,0-.52.68-.1.74a13.88,13.88,0,0,1,2.55.59C215.31,90.47,215.56,89.57,215,89.42Z"/>
    <path class="hz_ico_c2 fill_sec" d="M216.07,85.68l-1.84-.32c-.42-.07-.61.56-.18.65l1.82.39C216.35,86.5,216.54,85.76,216.07,85.68Z"/>
    <path class="hz_ico_c2 fill_sec" d="M216.37,82a3.16,3.16,0,0,0-1.31-.35.34.34,0,0,0-.17.63,2.74,2.74,0,0,0,1.16.47C216.48,82.83,216.82,82.2,216.37,82Z"/>
    <path class="hz_ico_c2 fill_sec" d="M255.26,217.65a22.49,22.49,0,0,0-1.26,5.16.74.74,0,0,0,.38.66l.15.08a.62.62,0,0,0,.9-.36c.3-.76.81-1.43,1.14-2.16s.68-1.6,1-2.4C258.31,216.93,255.8,215.9,255.26,217.65Z"/>
    <path class="hz_ico_c2 fill_sec" d="M259.76,207.91c-.11,1.52-.11,3-.07,4.52,0,.48.81.64.89.12a42.6,42.6,0,0,0,.45-4.64C261.06,207.09,259.82,207.1,259.76,207.91Z"/>
    <path class="hz_ico_c2 fill_sec" d="M263.54,179.86a20.77,20.77,0,0,1-1-3.72c-.08-.49-.93-.38-.88.12a21.75,21.75,0,0,0,.69,3.92C262.59,180.93,263.8,180.58,263.54,179.86Z"/>
    <path class="hz_ico_c2 fill_sec" d="M263.84,182.93c-.09-.5-.93-.39-.88.11l.18,1.76a.52.52,0,1,0,1-.14Z"/>
    <path class="hz_ico_c2 fill_sec" d="M238.65,134.47a47.62,47.62,0,0,0-3.88-3c-.3-.23-.69.28-.41.53,1.23,1.08,2.42,2.26,3.74,3.21C238.52,135.47,239,134.81,238.65,134.47Z"/>
    <path class="hz_ico_c2 fill_sec" d="M243.22,138.6a8.08,8.08,0,0,0-2.48-2.32c-.34-.2-.61.3-.3.52a7,7,0,0,1,2,2.26C242.73,139.56,243.55,139.07,243.22,138.6Z"/>
    <path class="hz_ico_c2 fill_sec" d="M250,147.51a10.94,10.94,0,0,0-3.2-4.37.19.19,0,0,0-.27.27,21.36,21.36,0,0,1,2.72,4.42C249.45,148.25,250.19,147.94,250,147.51Z"/>
    <path class="hz_ico_c2 fill_sec" d="M283.35,217.52c-.34,5.84-3.86,14.91-7.29,19-.58.69,1,1.49,1.35,1.11.12-.13.24-.27.37-.4a97.7,97.7,0,0,0,8.32-20.15A1.41,1.41,0,0,0,283.35,217.52Z"/>
    <path class="hz_ico_c2 fill_sec" d="M286.12,163.09a97.73,97.73,0,0,0-8.47-20.44.37.37,0,0,0-.66.22c-.06,3.43,2.09,6.86,3.35,10,1.33,3.26,1.79,8.06,4.46,10.43a1.82,1.82,0,0,0,2.79-.39Z"/>
    <path class="hz_ico_c2 fill_sec" d="M237.09,273.49c-5.52,4.81-10.6,6.34-17.36,8.51-1.39.44-1.46,2.09-.72,2.16a97,97,0,0,0,20.42-8.47l0,0a1.8,1.8,0,0,0,.35-.77A1.71,1.71,0,0,0,237.09,273.49Z"/>
    <path class="hz_ico_c2 fill_sec" d="M167.21,284.23a1.63,1.63,0,0,0,.38-2.94c-3.18-2-7.4-2.38-11-3.48a103.78,103.78,0,0,0-12.2-3.32c-.2,0-.41.22-.22.37.72.61,1.51,1.25,2.37,1.9A96.87,96.87,0,0,0,165,284.18c0,.11,0,.22-.05.33A11.73,11.73,0,0,0,167.21,284.23Z"/>
    <path class="hz_ico_c4 fill_prim" d="M73.08,287.21a123.58,123.58,0,0,1-28-49.67c-.05-.16-.32-.11-.29.06a91.24,91.24,0,0,0,27.14,51C72.77,289.39,73.84,288,73.08,287.21Z"/>
    <path class="hz_ico_c4 fill_prim" d="M49.69,280.15c-5.72-7.75-9.94-16-13.78-24.86-.16-.35-.82-.28-.73.16a58.31,58.31,0,0,0,13,25.76C48.91,282.12,50.42,281.14,49.69,280.15Z"/>
    <path class="hz_ico_c4 fill_prim" d="M364.7,189.75a.26.26,0,0,0-.5.14,59.49,59.49,0,0,1-3.95,35.63c-.28.65.65,1.22,1,.56A51,51,0,0,0,364.7,189.75Z"/>
    <path class="hz_ico_c4 fill_prim" d="M373.86,195.44c-.13-.62-1.05-.35-.94.26a60.46,60.46,0,0,1,.32,19.68c-.1.7,1,1,1.08.3A54.46,54.46,0,0,0,373.86,195.44Z"/>
    <path class="hz_ico_c4 fill_prim" d="M340.17,83.92a60.13,60.13,0,0,0-24.82-28.05c-.47-.28-.85.41-.42.71a69.27,69.27,0,0,1,23.82,28.17C339.2,85.72,340.58,84.87,340.17,83.92Z"/>
    <path class="hz_ico_c4 fill_prim" d="M343.08,76.13a42.67,42.67,0,0,0-21-23c-.51-.25-1,.5-.45.78a46,46,0,0,1,20,22.6C342.06,77.33,343.42,77,343.08,76.13Z"/>
    <path class="hz_ico_c4 fill_prim" d="M70.82,73.17C60.5,82.64,50.48,92.45,46.38,106.25c-.08.27.31.44.42.17,5.18-12.75,15.33-22.56,25-31.95C72.59,73.74,71.61,72.45,70.82,73.17Z"/>
    <path class="hz_ico_c4 fill_prim" d="M55.32,76a97.06,97.06,0,0,0-16.85,26.35c-.34.81.87,1.28,1.25.51A142.46,142.46,0,0,1,56.1,76.56C56.49,76.07,55.73,75.51,55.32,76Z"/>
    <path class="hz_ico_c4 fill_prim" d="M196.4,0A115.38,115.38,0,0,0,152.48,7.8c-.52.19-.32,1,.23.84A186.33,186.33,0,0,1,196.4,2.37,1.17,1.17,0,0,0,196.4,0Z"/>
    <path class="hz_ico_c4 fill_prim" d="M194.18,10a88.11,88.11,0,0,0-19.36,1.89c-.62.13-.35,1,.26.94a118.59,118.59,0,0,1,19.1-1.37A.73.73,0,0,0,194.18,10Z"/>
    <path class="hz_ico_c4 fill_prim" d="M217.87,358.31A166.92,166.92,0,0,1,179.16,361c-1.08,0-1.06,1.59,0,1.67a132.09,132.09,0,0,0,39.22-2.54C219.59,359.89,219.06,358.09,217.87,358.31Z"/>
    <path class="hz_ico_c4 fill_prim" d="M227.81,367.23a254.88,254.88,0,0,1-42.3,3c-.86,0-.82,1.24,0,1.31a147.9,147.9,0,0,0,42.87-2.27C229.75,369,229.14,367,227.81,367.23Z"/>
    <path class="hz_ico_c4 fill_prim" d="M331.14,303.05a55.64,55.64,0,0,1-11.94,15.26c-.43.39.2,1,.64.64a51.62,51.62,0,0,0,12.08-15.45C332.18,303,331.41,302.53,331.14,303.05Z"/>
    <path class="hz_ico_c4 fill_prim" d="M22.71,266.54a109.4,109.4,0,0,1-12.53-33c-.16-.8-1.38-.48-1.23.32a97.84,97.84,0,0,0,12.72,33.31C22.07,267.78,23.1,267.21,22.71,266.54Z"/>
    <path class="hz_ico_c4 fill_prim" d="M62.47,39.35A76.72,76.72,0,0,0,45.92,53.83c-.28.33.18.8.48.48A89.17,89.17,0,0,1,63,40.32C63.64,39.93,63.08,39,62.47,39.35Z"/>
    <path class="hz_ico_c4 fill_prim" d="M74.72,107.6a3.29,3.29,0,1,1-3.28-3.28A3.28,3.28,0,0,1,74.72,107.6Z"/>
    <path class="hz_ico_c4 fill_prim" d="M163.45,373.25a3.29,3.29,0,1,1-3.29-3.28A3.29,3.29,0,0,1,163.45,373.25Z"/>
    <path class="hz_ico_c4 fill_prim" d="M305.42,37a3.29,3.29,0,1,1-3.28-3.28A3.28,3.28,0,0,1,305.42,37Z"/>
    <path class="hz_ico_c4 fill_prim" d="M384,98.1a3.29,3.29,0,1,1-3.28-3.28A3.28,3.28,0,0,1,384,98.1Z"/>
    <path class="hz_ico_c4 fill_prim" d="M6.57,260.9a3.29,3.29,0,1,1-3.28-3.29A3.28,3.28,0,0,1,6.57,260.9Z"/>
    <path class="hz_ico_c4 fill_prim" d="M322.65,344.67a3.29,3.29,0,1,1-3.29-3.29A3.28,3.28,0,0,1,322.65,344.67Z"/>
    <path class="hz_ico_c4 fill_prim" d="M361.27,235.21a3.29,3.29,0,1,1-3.29-3.29A3.29,3.29,0,0,1,361.27,235.21Z"/>
    <path class="hz_ico_c4 fill_prim" d="M13.14,98.1a3.29,3.29,0,1,1-3.28-3.28A3.28,3.28,0,0,1,13.14,98.1Z"/>
    <path class="hz_ico_c4 fill_prim" d="M168.38,29.87a3.29,3.29,0,1,1-3.29-3.29A3.28,3.28,0,0,1,168.38,29.87Z"/>
    <path class="hz_ico_c5" d="M335.38,223a2.81,2.81,0,1,1,3.89.84A2.82,2.82,0,0,1,335.38,223Z"/>
    <path class="hz_ico_c5" d="M132.07,55.39a2.82,2.82,0,1,1,3.9.84A2.83,2.83,0,0,1,132.07,55.39Z"/>
    <path class="hz_ico_c5" d="M190.09,387.71a2.82,2.82,0,1,1,3.89.85A2.82,2.82,0,0,1,190.09,387.71Z"/>
    <path class="hz_ico_c5" d="M91.22,377.4a2.81,2.81,0,1,1,3.89.85A2.82,2.82,0,0,1,91.22,377.4Z"/>
    <path class="hz_ico_c5" d="M294,56.67a2.82,2.82,0,1,1,3.9.84A2.81,2.81,0,0,1,294,56.67Z"/>
    <path class="hz_ico_c5" d="M32.41,117a2.81,2.81,0,1,1,3.89.84A2.8,2.8,0,0,1,32.41,117Z"/>
    <circle class="hz_ico_c5" cx="22.8" cy="237.44" r="2.81"/>
    <path class="hz_ico_c5" d="M377.94,188.71a2.81,2.81,0,1,1,3.89.84A2.82,2.82,0,0,1,377.94,188.71Z"/>
    <path class="hz_ico_c5" d="M288.3,313.6a2.81,2.81,0,1,1,3.89.84A2.81,2.81,0,0,1,288.3,313.6Z"/>
    <path class="hz_ico_c6" d="M162.11,353.62a2.21,2.21,0,1,1-.42,3.09A2.2,2.2,0,0,1,162.11,353.62Z"/>
    <path class="hz_ico_c6" d="M353.36,181.36a2.21,2.21,0,1,1-.42,3.1A2.2,2.2,0,0,1,353.36,181.36Z"/>
    <path class="hz_ico_c6" d="M35.31,220.4a2.21,2.21,0,1,1-.41,3.09A2.21,2.21,0,0,1,35.31,220.4Z"/>
    <path class="hz_ico_c6" d="M18.07,121.26a2.21,2.21,0,1,1-.42,3.1A2.2,2.2,0,0,1,18.07,121.26Z"/>
    <path class="hz_ico_c6" d="M314.74,286.71a2.21,2.21,0,1,1-.42,3.1A2.2,2.2,0,0,1,314.74,286.71Z"/>
    <path class="hz_ico_c6" d="M215.21,55.87A2.21,2.21,0,1,1,214.8,59,2.21,2.21,0,0,1,215.21,55.87Z"/>
    <path class="hz_ico_c6" d="M153.09,39.31a2.21,2.21,0,1,1-.42,3.1A2.2,2.2,0,0,1,153.09,39.31Z"/>
    <path class="hz_ico_c6" d="M209.64,339.37a2.21,2.21,0,1,1-.42,3.09A2.2,2.2,0,0,1,209.64,339.37Z"/>
    <path class="hz_ico_c6" d="M102.75,313.79a2.21,2.21,0,1,1-.41,3.1A2.21,2.21,0,0,1,102.75,313.79Z"/>
</svg>